<svg width="14" height="15" viewBox="0 0 14 15" shape-rendering="geometricPrecision" xmlns="http://www.w3.org/2000/svg" xmlns:xlink="http://www.w3.org/1999/xlink"><path d="M1 1C0.734784 1 0.48043 1.10536 0.292893 1.29289C0.105357 1.48043 2.22045e-16 1.73478 0 2L0 3C2.22045e-16 3.26522 0.105357 3.51957 0.292893 3.70711C0.48043 3.89464 0.734784 4 1 4L1.5 4L1.5 13C1.5 13.5304 1.71071 14.0391 2.08579 14.4142C2.46086 14.7893 2.96957 15 3.5 15L9.5 15C10.0304 15 10.5391 14.7893 10.9142 14.4142C11.2893 14.0391 11.5 13.5304 11.5 13L11.5 4L12 4C12.2652 4 12.5196 3.89464 12.7071 3.70711C12.8946 3.51957 13 3.26522 13 3L13 2C13 1.73478 12.8946 1.48043 12.7071 1.29289C12.5196 1.10536 12.2652 1 12 1L8.5 1C8.5 0.734784 8.39464 0.48043 8.20711 0.292893C8.01957 0.105357 7.76522 1.66533e-16 7.5 0L5.5 2.77556e-17C5.23478 1.94289e-16 4.98043 0.105357 4.79289 0.292893C4.60536 0.48043 4.5 0.734784 4.5 1L1 1ZM4 5C4.13261 5 4.25979 5.05268 4.35355 5.14645C4.44732 5.24021 4.5 5.36739 4.5 5.5L4.5 12.5C4.5 12.6326 4.44732 12.7598 4.35355 12.8536C4.25979 12.9473 4.13261 13 4 13C3.86739 13 3.74021 12.9473 3.64645 12.8536C3.55268 12.7598 3.5 12.6326 3.5 12.5L3.5 5.5C3.5 5.36739 3.55268 5.24021 3.64645 5.14645C3.74021 5.05268 3.86739 5 4 5L4 5ZM6.5 5C6.63261 5 6.75979 5.05268 6.85355 5.14645C6.94732 5.24021 7 5.36739 7 5.5L7 12.5C7 12.6326 6.94732 12.7598 6.85355 12.8536C6.75979 12.9473 6.63261 13 6.5 13C6.36739 13 6.24021 12.9473 6.14645 12.8536C6.05268 12.7598 6 12.6326 6 12.5L6 5.5C6 5.36739 6.05268 5.24021 6.14645 5.14645C6.24021 5.05268 6.36739 5 6.5 5L6.5 5ZM9.5 5.5L9.5 12.5C9.5 12.6326 9.44732 12.7598 9.35355 12.8536C9.25979 12.9473 9.13261 13 9 13C8.86739 13 8.74021 12.9473 8.64645 12.8536C8.55268 12.7598 8.5 12.6326 8.5 12.5L8.5 5.5C8.5 5.36739 8.55268 5.24021 8.64645 5.14645C8.74021 5.05268 8.86739 5 9 5C9.13261 5 9.25979 5.05268 9.35355 5.14645C9.44732 5.24021 9.5 5.36739 9.5 5.5L9.5 5.5Z" shape-rendering="geometricPrecision" fill="#DF4444" style="fill-rule:evenodd" transform="matrix(1 0 0 1 0.5 0)"></path></svg>