<svg width="16" height="16" viewBox="0 0 16 16" shape-rendering="geometricPrecision" xmlns="http://www.w3.org/2000/svg" xmlns:xlink="http://www.w3.org/1999/xlink"><path d="M11.5556 0L1.77778 0C0.8 0 1.19209e-07 0.8 1.19209e-07 1.77778L1.19209e-07 14.2222C1.19209e-07 15.2 0.8 16 1.77778 16L14.2222 16C15.2 16 16 15.2 16 14.2222L16 4.44444L11.5556 0ZM3.55556 3.55556L8 3.55556L8 5.33333L3.55556 5.33333L3.55556 3.55556ZM12.4444 12.4444L3.55556 12.4444L3.55556 10.6667L12.4444 10.6667L12.4444 12.4444ZM12.4444 8.88889L3.55556 8.88889L3.55556 7.11111L12.4444 7.11111L12.4444 8.88889ZM10.6667 5.33333L10.6667 1.77778L14.2222 5.33333L10.6667 5.33333Z" shape-rendering="geometricPrecision" fill="#7890B2" style="fill-rule:evenodd" transform="matrix(1 0 0 1 0 0)"></path></svg>